<?xml version="1.0" encoding="UTF-8" standalone="no"?>
<!DOCTYPE svg PUBLIC "-//W3C//DTD SVG 1.1//EN" "http://www.w3.org/Graphics/SVG/1.1/DTD/svg11.dtd">
<svg width="100%" height="100%" viewBox="0 0 5040 2993" version="1.1" xmlns="http://www.w3.org/2000/svg" xmlns:xlink="http://www.w3.org/1999/xlink" xml:space="preserve" xmlns:serif="http://www.serif.com/" style="fill-rule:evenodd;clip-rule:evenodd;stroke-linejoin:round;stroke-miterlimit:1.5;">
    <g transform="matrix(1,0,0,1,-135.059,-468.902)">
        <circle cx="607.5" cy="1681.5" r="393.5" style="fill:rgb(0,142,0);"/>
        <path d="M607.5,1288C824.679,1288 1001,1464.32 1001,1681.5C1001,1898.68 824.679,2075 607.5,2075C390.321,2075 214,1898.68 214,1681.5C214,1464.32 390.321,1288 607.5,1288ZM607.5,1326.89C803.215,1326.89 962.111,1485.79 962.111,1681.5C962.111,1877.22 803.215,2036.11 607.5,2036.11C411.785,2036.11 252.889,1877.22 252.889,1681.5C252.889,1485.79 411.785,1326.89 607.5,1326.89Z" style="fill:rgb(0,91,40);"/>
    </g>
    <g transform="matrix(1,0,0,1,1912.19,-468.902)">
        <circle cx="607.5" cy="1681.5" r="393.5" style="fill:rgb(143,66,174);"/>
        <path d="M607.5,1288C824.679,1288 1001,1464.32 1001,1681.5C1001,1898.68 824.679,2075 607.5,2075C390.321,2075 214,1898.68 214,1681.5C214,1464.32 390.321,1288 607.5,1288ZM607.5,1326.89C803.215,1326.89 962.111,1485.79 962.111,1681.5C962.111,1877.22 803.215,2036.11 607.5,2036.11C411.785,2036.11 252.889,1877.22 252.889,1681.5C252.889,1485.79 411.785,1326.89 607.5,1326.89Z" style="fill:rgb(82,32,93);"/>
    </g>
    <g transform="matrix(1,0,0,1,3959.43,-468.902)">
        <circle cx="607.5" cy="1681.5" r="393.5" style="fill:rgb(209,4,15);"/>
        <path d="M607.5,1288C824.679,1288 1001,1464.32 1001,1681.5C1001,1898.68 824.679,2075 607.5,2075C390.321,2075 214,1898.68 214,1681.5C214,1464.32 390.321,1288 607.5,1288ZM607.5,1326.89C803.215,1326.89 962.111,1485.79 962.111,1681.5C962.111,1877.22 803.215,2036.11 607.5,2036.11C411.785,2036.11 252.889,1877.22 252.889,1681.5C252.889,1485.79 411.785,1326.89 607.5,1326.89Z" style="fill:rgb(126,4,6);"/>
    </g>
    <g transform="matrix(1,0,0,1,78.9409,-283.465)">
        <g transform="matrix(1,-0,-0,1,-78.9409,283.465)">
            <path d="M3816.28,1627.58L4252.17,1527.56L4070.65,1936.28C4084.24,1795.51 3957.05,1641.16 3816.28,1627.58Z" style="fill:rgb(35,83,219);"/>
            <path d="M2834.85,1527.56C2834.85,1527.56 3231.67,1921.26 3543.31,1921.26C3695.62,1921.26 3868.37,1827.22 4005.21,1731.05" style="fill:none;stroke:rgb(35,83,219);stroke-width:111.11px;"/>
        </g>
    </g>
    <g transform="matrix(1,0,0,-1,-1968.3,2708.66)">
        <g transform="matrix(1,0,0,-1,1968.3,2708.66)">
            <path d="M2023.41,488.919L2204.93,897.638L1769.04,797.621C1909.81,784.037 2036.99,629.686 2023.41,488.919Z" style="fill:rgb(35,83,219);"/>
            <path d="M787.602,897.638C787.602,897.638 1184.43,503.937 1496.06,503.937C1648.37,503.937 1821.13,597.982 1957.96,694.143" style="fill:none;stroke:rgb(35,83,219);stroke-width:111.11px;"/>
        </g>
    </g>
</svg>
